<svg id="Layer_1" data-name="Layer 1" xmlns="http://www.w3.org/2000/svg" xmlns:xlink="http://www.w3.org/1999/xlink" viewBox="0 0 183.41 66.64"><defs><style>.cls-1{fill:none;}.cls-2{clip-path:url(#clip-path);}.cls-3{fill:#231f20;}.cls-4{fill:#00b6d6;}.cls-5{clip-path:url(#clip-path-2);}.cls-6{fill:url(#linear-gradient);}</style><clipPath id="clip-path" transform="translate(-6.59 -2.09)"><rect class="cls-1" x="-199" y="-93.28" width="424.89" height="321.28"/></clipPath><clipPath id="clip-path-2" transform="translate(-6.59 -2.09)"><path class="cls-1" d="M51,19.58h0c1.06,5.83,2.23,12.89-1,18.08C47.93,41,44.64,44,37.76,45.2V63.39C56.09,63.26,69,51.37,69,32.8c0-9.26-3.36-17.12-8.76-22.45Z"/></clipPath><linearGradient id="linear-gradient" x1="-198.83" y1="228.1" x2="-198.29" y2="228.1" gradientTransform="matrix(-73.83, 0, 0, 73.83, -14596.33, -16803.01)" gradientUnits="userSpaceOnUse"><stop offset="0" stop-color="#fff200"/><stop offset="0.15" stop-color="#fff200"/><stop offset="1" stop-color="#00b6d6"/></linearGradient></defs><title>logo</title><g class="cls-2"><path class="cls-3" d="M87.22,32.22A75.46,75.46,0,0,0,92.51,21.8,74.9,74.9,0,0,0,97.8,32.22h4.6a83.67,83.67,0,0,1-6.51-12.54h6.43V15.9H94.57V11.26H90.39V15.9H82.62v3.78h6.52a85.63,85.63,0,0,1-6.52,12.54Zm21.94,2.72h4V12.46h-4v9.22H103v3.77h6.17Zm60.68-6.7c5.12,0,8.64-3.21,8.64-8.23s-3.52-8.24-8.64-8.24S161.2,15,161.2,20s3.53,8.23,8.64,8.23m0-12.82A4.4,4.4,0,0,1,174.56,20a4.71,4.71,0,0,1-9.41,0,4.38,4.38,0,0,1,4.69-4.59M147.52,34.94h4V12.46h-4v9.22h-6.16v3.77h6.16Zm-22.36-2.72a77.93,77.93,0,0,0,5.93-12,77.89,77.89,0,0,0,5.92,12h4.67A84.09,84.09,0,0,1,134.51,18h6.12V14.28H120.91V18h6.76a84.13,84.13,0,0,1-7.18,14.21Zm6.13,13.52c0,5.65,3.94,9.28,9.72,9.28s9.74-3.63,9.74-9.28-4-9.31-9.74-9.31-9.72,3.66-9.72,9.31m15.38,0c0,3.35-2.3,5.51-5.66,5.51a5.28,5.28,0,0,1-5.65-5.51,5.27,5.27,0,0,1,5.65-5.5c3.36,0,5.66,2.16,5.66,5.5m31.12-11.07h7.85v7.64h4V12.46h-4V30.9h-7.85Zm-75.22,1.76c-5.77,0-9.74,3.66-9.74,9.31s4,9.28,9.74,9.28,9.73-3.63,9.73-9.28-4-9.31-9.73-9.31m0,14.82a5.28,5.28,0,0,1-5.66-5.51c0-3.34,2.31-5.5,5.66-5.5a5.26,5.26,0,0,1,5.64,5.5,5.26,5.26,0,0,1-5.64,5.51m64.64-3.48a87.85,87.85,0,0,0,7.71-16.86H158.61v3.76h10.54a75.89,75.89,0,0,1-6.68,13.1Zm9.94,2.1V42.12h-4V53.66H190V49.87Z" transform="translate(-6.59 -2.09)"/><path class="cls-4" d="M38.46,63.12V45.55l-.7-.35a31.08,31.08,0,0,1-12-.38c-2.8-5.28-4.94-14.89,1.64-20.29,6.86-5.63,16.83-5,23.57-5l9.22-9.23C54.73,4.91,47.11,2.09,37.78,2.09c-18.48,0-31.19,12-31.19,30.7s12.7,30.6,31.18,30.6h0Z" transform="translate(-6.59 -2.09)"/></g><g class="cls-5"><rect class="cls-6" x="24.54" y="16.89" width="57.65" height="39.95" transform="translate(1.2 80.94) rotate(-80)"/></g></svg>