<svg id="Layer_1" data-name="Layer 1" xmlns="http://www.w3.org/2000/svg" xmlns:xlink="http://www.w3.org/1999/xlink" viewBox="0 0 126 127.5"><defs><style>.cls-1{fill:none;}.cls-2{clip-path:url(#clip-path);}.cls-3{fill:#00b6d6;}.cls-4{clip-path:url(#clip-path-2);}.cls-5{fill:url(#linear-gradient);}</style><clipPath id="clip-path"><rect class="cls-1" x="-149" y="-66.28" width="424.89" height="321.28"/></clipPath><clipPath id="clip-path-2"><path class="cls-1" d="M88.26,42.6h0c1.93,10.69,4.07,23.65-1.87,33.17-3.78,6-9.8,11.57-22.43,13.83V123c33.61-.23,57.26-22,57.26-56.13,0-17-6.17-31.39-16.06-41.18Z"/></clipPath><linearGradient id="linear-gradient" x1="-149" y1="254.98" x2="-148" y2="254.98" gradientTransform="matrix(-73.83, 0, 0, 73.83, -10853.61, -18750.11)" gradientUnits="userSpaceOnUse"><stop offset="0" stop-color="#fff200"/><stop offset="0.15" stop-color="#fff200"/><stop offset="1" stop-color="#00b6d6"/></linearGradient></defs><title>Artboard 1</title><g class="cls-2"><path class="cls-3" d="M65.29,122.48V90.24L64,89.6c-9.09,1.53-18.53.35-22-.69-5.14-9.69-9.06-27.32,3-37.24C57.63,41.34,75.93,42.5,88.3,42.6l16.91-16.94C95.13,15.68,81.16,10.5,64,10.5,30.13,10.5,6.8,32.56,6.8,66.84S30.11,123,64,123h0Z"/></g><g class="cls-4"><rect class="cls-5" x="39.75" y="37.67" width="105.78" height="73.3" transform="translate(3.36 152.64) rotate(-80)"/></g></svg>