<svg id="Layer_1" data-name="Layer 1" xmlns="http://www.w3.org/2000/svg" xmlns:xlink="http://www.w3.org/1999/xlink" viewBox="0 0 124.32 173.5"><defs><style>.cls-1{fill:none;}.cls-2{clip-path:url(#clip-path);}.cls-3{fill:#231f20;}.cls-4{fill:#00b6d6;}.cls-5{clip-path:url(#clip-path-2);}.cls-6{fill:url(#linear-gradient);}</style><clipPath id="clip-path"><rect class="cls-1" x="-151" y="-76.78" width="424.89" height="321.28"/></clipPath><clipPath id="clip-path-2"><path class="cls-1" d="M86.26,32.1h0c1.93,10.68,4.07,23.65-1.87,33.17-3.78,6-9.8,11.57-22.43,13.83v33.37c33.61-.23,57.26-22,57.26-56.13,0-17-6.17-31.39-16.06-41.18Z"/></clipPath><linearGradient id="linear-gradient" x1="-151" y1="244.48" x2="-150" y2="244.48" gradientTransform="matrix(-73.83, 0, 0, 73.83, -11003.26, -17985.25)" gradientUnits="userSpaceOnUse"><stop offset="0" stop-color="#fff200"/><stop offset="0.15" stop-color="#fff200"/><stop offset="1" stop-color="#00b6d6"/></linearGradient></defs><title>Artboard 1</title><g class="cls-2"><path class="cls-3" d="M19,149.62a65,65,0,0,0,4.63-9.12,66.75,66.75,0,0,0,4.64,9.12h4a72.74,72.74,0,0,1-5.7-11h5.63v-3.32H25.48v-4H21.82v4H15v3.32h5.71a73.72,73.72,0,0,1-5.71,11ZM38.26,152h3.52V132.31H38.26v8.08h-5.4v3.3h5.4Zm53.15-5.87c4.48,0,7.56-2.81,7.56-7.2s-3.08-7.22-7.56-7.22-7.57,2.82-7.57,7.22,3.09,7.2,7.57,7.2m0-11.23a4,4,0,1,1-4.12,4,3.86,3.86,0,0,1,4.12-4M71.86,152h3.53V132.31H71.86v8.08h-5.4v3.3h5.4Zm-19.59-2.38a68.09,68.09,0,0,0,5.19-10.52,69,69,0,0,0,5.19,10.52h4.09a73.25,73.25,0,0,1-6.28-12.44h5.36v-3.27H48.55v3.27h5.92a73.3,73.3,0,0,1-6.29,12.44Zm5.37,11.84c0,4.95,3.46,8.13,8.51,8.13s8.54-3.18,8.54-8.13-3.48-8.15-8.54-8.15-8.51,3.21-8.51,8.15m13.47,0a4.62,4.62,0,0,1-5,4.83,4.83,4.83,0,1,1,0-9.65,4.61,4.61,0,0,1,5,4.82m27.26-9.69h6.88v6.69h3.52V132.31h-3.52v16.15H98.37Zm-65.88,1.54c-5.06,0-8.53,3.21-8.53,8.15s3.47,8.13,8.53,8.13S41,166.41,41,161.46s-3.45-8.15-8.51-8.15m0,13a4.83,4.83,0,1,1,0-9.65,4.83,4.83,0,1,1,0,9.65m56.61-3a76.84,76.84,0,0,0,6.75-14.77H81.57v3.3H90.8A67.33,67.33,0,0,1,85,163.24Zm8.71,1.84V158.3H94.26v10.1h14.8v-3.32Z"/><path class="cls-4" d="M63.29,112V79.74L62,79.1c-9.09,1.52-18.53.35-22-.69-5.14-9.69-9.06-27.32,3-37.24C55.63,30.84,73.93,32,86.3,32.1l16.91-16.94C93.13,5.18,79.16,0,62,0,28.13,0,4.8,22.06,4.8,56.34S28.11,112.48,62,112.48h0Z"/></g><g class="cls-5"><rect class="cls-6" x="37.75" y="27.16" width="105.78" height="73.3" transform="translate(12.05 141.99) rotate(-80)"/></g></svg>