<svg id="Layer_1" data-name="Layer 1" xmlns="http://www.w3.org/2000/svg" viewBox="0 0 331.84 159.3"><title>Artboard 2</title><path d="M253.44,89.82a54,54,0,0,1,2.79,4.69c1.38,3,2.43,6.17,3.93,9.11.86,1.68,2.34,3,3.8,4.86,8.38-12.81,17.93-24.07,25.05-38.34-5-.12-9.05.06-13-.38s-8.05-1.54-12.17-2.36c-1.23,1.66-2.18,3-3.43,4.66l3.33,2.37a59.73,59.73,0,0,1,5.23,3.81c4.27,3.84,3.31,8.27-2.74,10.9l-11.39-8.9c-4.05,2.76-8.42,6-13,8.81a144,144,0,0,1-12.7,6.89c-3.61,1.75-4.93,1.32-7.52-2,1.77-1.93,3.4-4.26,5.53-6a114.5,114.5,0,0,0,29.79-35c1.85-3.43,4.87-6.23,7.19-9.11,4.24,0,6.1,1.19,6.44,4.81.27,2.88-.39,5.85-.71,9.56a126.3,126.3,0,0,1,39.41,1.52,301.69,301.69,0,0,1-36.73,57.9c3.94,2.55,7.6,4.68,11,7.17,10.35,7.56,21.88,12.42,34.12,16,4.07,1.2,7.72,3.81,11.52,5.75.85,4.27-.63,6.33-5.25,6.86a35,35,0,0,1-15.73-1.87,131.49,131.49,0,0,1-30.84-15.14c-3.57-2.42-6.75-5.4-10.11-8.11-.75-.61-1.54-1.17-2.5-1.89a44.85,44.85,0,0,0-3.85,3.29,67,67,0,0,1-25.06,16.86c-3.88,1.49-8.4,1.48-12.66,1.66-1.44.07-3-1.38-4.28-2,.65-3.31,2.61-3.55,4.65-3.85a38.76,38.76,0,0,0,20.23-9.74c5-4.47,9.27-9.75,14-14.81-1.41-2.84-2.86-5.28-3.84-7.9A114.85,114.85,0,0,1,250,97.62C249.22,94.73,250.24,92.15,253.44,89.82Z"/><path d="M264.28,26c5,0,9.87,0,14.8,0,9.48.1,19-.34,28.43.6,5.78.57,11.35,3.28,16.67,4.92.89,3.77-.75,5.41-3.22,5.92a66.82,66.82,0,0,1-12.3,1.71c-11,.15-22-.14-33-.21-12.8-.07-25.61-.06-38.41-.13-11.14-.06-22.29-.09-33.43-.33A59.17,59.17,0,0,1,193,37.19c-2.13-.46-4.08-1.83-5.87-2.67.15-3.53,2.1-3.74,4.21-3.85,6.76-.33,13.52-.6,20.27-1.09,7.72-.55,15.42-1.25,23.12-2,5.06-.51,10.1-1.26,15.84-2C250,20,249.37,14.48,248.75,8.83c1.24-1.32,2.42-2.48,3.47-3.73,1.48-1.76,3.14-3.14,5.58-2.36s3.67,2.81,4,5.26c.7,4.94,1.27,9.89,1.91,14.84C263.83,23.65,264,24.44,264.28,26Z"/><path d="M45.93,41.37l-3.24,4.38c1.5,2.81,2.69,5.78,4.52,8.28,4.81,6.56,3,13-.28,19.17C41.51,83.4,32.64,88.56,21.18,89.44c-3.84.3-7.13-.11-9.46-3.91-2-3.31-5.39-5.44-6.81-9.58-3-8.76-.75-16.42,3.42-23.84,5.13-9.11,14.07-13,23.55-15.3,3.24-.79,7.13.74,10.62,1.6C43.7,38.71,44.61,40.19,45.93,41.37ZM35.29,50.74l-1.67-.16c-3.88,5.57-8.95,10.58-8.19,19.4,4.86-3.77,9.08-7.05,13.53-10.49C37.66,56.38,36.47,53.56,35.29,50.74Z"/><path d="M218.19,67.59a110.93,110.93,0,0,0-2,30c.57,8.1-.33,16.29-.48,24.44-.08,4,.31,8,0,12A77,77,0,0,1,214,145.28c-.23,1.07-1.49,1.92-2.12,2.68a8.29,8.29,0,0,1-6.84-6,41,41,0,0,1-2.26-10.66,185.88,185.88,0,0,1-.07-21c.51-8.27,1.66-16.51,2.59-24.76a20.08,20.08,0,0,0,.17-6.81c-2.87,2.13-5.5,4.76-8.67,6.24s-6.65,1.65-10.32,2.47l-2.1-4.06a11.76,11.76,0,0,1,1.22-2.08c10-10.41,20.53-20.26,30.74-30.44,3.61-3.61,7.88-5.39,12.7-6.59,3.18,1,4.15,3.43,2.91,6.22a36.18,36.18,0,0,1-5.21,8.33C224.22,62,221.18,64.59,218.19,67.59Z"/><path d="M110.44,40a11.66,11.66,0,0,1,8.09-6.26c8.15-1.48,16.35-3,24.74-1.27,6.6,1.37,11.54,5.46,17,9-1.33,6.13-7.23,8.6-9.71,14.14,11.25,5.72,20.49,13.71,26.72,24.71-2.92,3.64-4.49,4-7.49,1.45s-5.55-5.27-8.42-7.79A80,80,0,0,0,144.2,62c-3.9,4.56-7.73,8.89-11.38,13.36-2.52,3.08-4.79,6.37-7.19,9.56-3.24,4.32-5,4.61-10.38,1.53-1.14-3.68,0-7.33,1.43-10.84a79.65,79.65,0,0,1,17.59-26.39c1.82-1.84,3.52-3.81,5.89-6.4-2.35-.43-3.77-1-5.15-.9-5.29.32-10.6.68-15.87,1.36C115.57,43.71,112.67,43.15,110.44,40Z"/><path d="M185,101.62c-3.19,2.95-6.84,3.67-10.76,3.79-6.16.19-12.31.47-18.47.78a20.46,20.46,0,0,0-3.14.64c-4,12-1.31,24.94-5.83,37.53-1.87-1.09-3.29-1.45-3.9-2.35-3.88-5.83-6-12.12-4.87-19.29.78-5,1.2-10.12,1.85-15.74-2.76.17-5.38.35-8,.48-7,.33-14,.59-20.95,1a25,25,0,0,1-12.52-2.84c-2.21-1.09-2.22-1.07-3.32-4.47.79-2.61,2.89-3.4,5.33-3.73,9.89-1.33,19.76-3.1,29.7-3.88,10.44-.82,21-.83,31.45-.94,5,0,10,.43,14.94.77C180.66,93.62,183.55,96.42,185,101.62Z"/><path d="M64.07,108.72c-.55-4.06-1.51-8.11-1.58-12.18-.21-12.48-.32-25,0-37.43.3-12.28,5.45-23.22,10.62-34,.84-1.77,2.76-3,4.32-4.68,4.13,3.19,3.79,7,3.16,10.78-.73,4.25-1.82,8.43-2.73,12.65A44.08,44.08,0,0,0,77,57.6c12.94-3.47,25.41-6.33,38.35-4.88a7.86,7.86,0,0,1,2.2,1.08c.13,3.41-2,4.3-4.61,4.92q-14.57,3.42-29.1,7c-2.22.55-4.35,1.48-7.24,2.48-.57,7-1.19,13.88-1.71,20.8-.45,6-.54,12.07-4.85,16.89a34.6,34.6,0,0,1-4.33,3.54Z"/><path d="M52.08,103.23c2.32,6.48-1.93,12.43-1.31,19.08,18.88,1.36,37-2.76,55.64-4.75,0,3.66-1.16,5.86-3.45,7.08-6.41,3.43-12.75,7.15-19.49,9.8-11.62,4.56-24,5.39-36.33,5.12-6.61-.15-12-7.43-10.89-13.86C37.7,117.34,41.1,110.19,48,105a22.71,22.71,0,0,1,2.5-1.62C50.72,103.19,51.11,103.28,52.08,103.23Z"/><path d="M325,113.75l-6.34,2.67c.08.41.17.82.25,1.22,4.08,1.89,8.5-1.94,13,.4-3.42,3.88-8.51,2.82-12.47,4.48-.55,1.78-1.07,3.44-1.63,5.27-3-.74-2.72-3-2.91-4.79-.93-8.72-.34-12.94,2.4-15.81l2.09,4.59,5.53,1Z"/><path d="M302.18,125.3c-2.84-4.22-2.29-7.6,2.06-12.53,4,1,5.59,2.69,5.32,5.68C309.21,122.42,306.35,125.08,302.18,125.3Z"/></svg>