<svg id="Layer_1" data-name="Layer 1" xmlns="http://www.w3.org/2000/svg" viewBox="0 0 331.84 159.3"><title>Artboard 2</title><path d="M97.87,98.82c0,.66-.22,1.45.07,1.94,4.42,7.59,2.62,15.13-.36,22.52-2.51,6.25-2.71,7,3.49,9.2s12.58,4.36,18.49,7.51c1.65.88,3.58,1.3,5.1,2.34,1.7,1.16,4.12,2.65,4.35,4.26.34,2.4-6.33,5.61-9.2,4.55-3.87-1.43-7.56-3.33-11.39-4.88s-8.11-2.33-11.49-4.53c-5.31-3.45-8.87-.21-11.91,2.73-4.11,4-7.33,8.91-10.94,13.43H52.36c-2.58-3-2-6.67-2-10.22s1.95-5,5.32-5.73c5.34-1.14,9.85-3.28,12.91-8.64,4.12-7.22,9.5-13.72,14.06-20.7,1.53-2.34,2-5.32,3.33-7.85,1.45-2.84,3.27-5.49,4.91-8.22s3.2-.06,4.8.07Z"/><path d="M330.77,35.47c-6.88,2.24-13.7,4.92-21.48,3.7,3.36-5,5.64-9.8,3.72-15.52-.78-2.29,3.57-5.68-1.51-7L312.65,15c.88-1.26,3.79-2.8-.49-3.38-.22,0-.61-1-.45-1.33A4.61,4.61,0,0,1,317.53,8c2,.7,1.6,2.39.47,3.9a2.34,2.34,0,0,0-.18,1.39c5.3,1.42,2.84,3.64.71,6-.42.46-.32,1.41-.46,2.13a6,6,0,0,0,1.85-.12c.59-.21,1.09-1.05,1.6-1a15.93,15.93,0,0,1,3.21.71c-.63.9-1.22,2.52-1.92,2.57-2.88.21-5.18,1.1-5.76,4.11a69.59,69.59,0,0,0-.68,7.67c5-.57,1-5.06,3.58-7.41,2.53,3.7,5.56,7.15,10.82,5.63Z"/><path d="M265.63,106.58c-2.67,1-5.35,2-8,3-5,1.9-12.61-.8-15.08-5.51a6.52,6.52,0,0,1-.59-3.73c.55-4.12.46-8.62,2.21-12.21,4.9-10.06,9.41-20.46,16.81-29,2.88-3.35,7.1-4,11.53-4,2.86,0,2.48,2.65,3.88,3.64,3.89,2.77,4.29,6.15,3.3,10.58-.81,3.7.43,7.8-1.95,11.33a4.48,4.48,0,0,0,2.23,2.1c3.1.38,4.83-1.41,5.47-4.33,1.29-5.9,2.74-11.77,3.75-17.71.47-2.78-.27-6.76,3.46-6.6,2.89.13,2.95,3.89,2.6,6.56-.54,4.11-1.41,8.19-1.88,12.31-.61,5.31,1.64,8,5.51,5.55,5.37-3.35,9.3,1,13.93.58,2.88-.26,2.79,3,2,4.35-1.59,2.74-3.61,5.43-7.55,5.4a58.22,58.22,0,0,0-9.69.72c-5.91.94-5.91,1-6.21,6.09-.07,1.29,0,2.58,0,4.11,5.17-1.31,10.25-2,15-.38,2.74.94,6.68,1.64,6.63,6.09-.05,3.65-3.2,7.84-7.23,9a77.55,77.55,0,0,1-9.32,2c-4.08.69-5.59,2.56-5.11,6.67.42,3.62,4.14,7.68,6.78,6.55,2.42-1.05,3.83-.52,6.09,0,2.91.67,6.27-.29,9.38-.88,3.56-.67,6.79-1,10.3.93,2.77,1.5,5.4,2.51,5,6.2-.31,2.56-3.9,5.81-6.81,6.11a39.75,39.75,0,0,1-6.9.09c-13.62-1-27.37,1.77-40.91-1.49-5.55,3-11.56.89-17.34,1.47a8.84,8.84,0,0,1-4.66-.8c-1.14-.58-3.26-1.78-1-3.55,1.71-1.37,3.52-2.95,5.54-3.54a117,117,0,0,1,16.66-3.88c3.95-.54,6-1.87,6.06-6,0-1.8.75-3.59,1.28-5.91h-8.62c-1.32,0-2.9.46-3.9-.1-2.18-1.23-4.54-2.64-6-4.6-1.91-2.65,1.38-3.78,2.55-5.52a12.63,12.63,0,0,0,.81-1.7l9.17-2c6.44-1.38,9.7-4.68,10-10.65.05-.88-2-2.77-2.22-2.64-4.43,2.45-11.15.93-13.13,7.75C268.65,101.66,266.93,104.06,265.63,106.58Z"/><path d="M52.76,100.63c-4.2.66-7.69-1-10.77-3.45C39.23,95,40,92,43.25,90.69c10.11-3.84,10.89-4.93,11-15.33,0-3,0-5.91,0-8.87,0-8.27-2.55-10.86-10.85-11.18-5.06-.19-5.14.41-4.19,5.6s1.84,10.4,1.06,15.36C39.09,84,36.51,91.54,33.6,99c-2.63,6.7-8.86,8-13.87,11.23-.54.35-1.91-.05-2.6-.53C13.29,107,9.63,103.28,9.2,99,7.86,85.26,4.48,71.58,8.61,57.64c1.7-5.75,1.45-12.08,2.28-18.11A52.73,52.73,0,0,1,13,29.26c1.57-4.5,6.34-5,9.08-1.21a6.49,6.49,0,0,1,.74,1.75C25.6,38,31.74,39.89,39.64,39.42c5.44-.32,10.91-.34,16.29,1.69,2.1.79,4.15,1.21,6,2.73,7.58,6.27,14.88,12.7,16.89,23a31.27,31.27,0,0,1,.65,7.4c-.13,2.51-1,5-1.32,7.5-.58,5-2.26,8.54-6.94,11.7A41,41,0,0,1,52.76,100.63Z"/><path d="M173.25,84.09c4.56.86,9.26,1.67,13.91,2.69a9.08,9.08,0,0,1,4.26,1.91c5.23,5.15,6.81,12.13,9,18.78-2.51,3.77-.59,9-4.3,12.43a16.39,16.39,0,0,1-12.37,4.18c-4.37-.35-8.59.36-12.88.28-4.6-.09-9.21,0-13.81,0-8.34-.07-13.82-5.39-13.93-13.64-.11-7.56,0-15.13,0-22.7,0-1.87.61-3.34,2.72-3.12,1.11.12,2.66.67,3.11,1.52A15.7,15.7,0,0,1,151,92.7c.15,2.83.86,4.28,3.94,3.94a15.91,15.91,0,0,1,4.92,0c4.35.9,5.42-2.07,6.78-5.92-3.78,0-7.33,0-10.87,0-2.11,0-2.85-1.14-2.83-3s1-3,3-2.9c1,0,2,0,3,0,3.2-.11,2.86-.34,5.72-4.82,2.41-3.78,5.78-6.94,8.61-10.48a81.76,81.76,0,0,0,6.9-9.31c1.58-2.67.18-5-2.93-7-2.64,3.49-5.19,7.18-8.1,10.56-1.31,1.52-2.63,4.68-5.23,2.6-.74-.59.18-4.13,1.18-5.81,2-3.31,4.57-6.24,6.86-9.36,1.91-2.59,4.93-2.55,7.15-1.75a25.9,25.9,0,0,1,8,5.27c5,4.48,4.9,7.32.56,12.34C182.79,72.7,178,78.43,173.25,84.09Zm17.69,16.55c-1.85-6.72-4-11.19-11.3-10-2,.32-4.15-.62-6.72-1.07,0,1.75-.15,3.64,0,5.49.43,4.37,1.52,5.4,6.05,5.56C182.78,100.75,186.57,100.64,190.94,100.64Zm1,8.89c-4-1.06-7.3-2-10.66-2.81-3-.71-5.64.69-5.85,3.2a9.13,9.13,0,0,0,.69,4.71c.46.89,2.08,1.52,3.24,1.64,2.59.25,5.23,0,7.83.15s3.39-1,3.46-3.46C190.71,111.76,191.53,110.6,192,109.53Zm-33.6,4.93c1.88,0,3,.28,3.8-.07s2.44-1.44,2.37-2a5,5,0,0,0-2-3c-1.49-1-6.39.8-7.28,2.59a1.8,1.8,0,0,0,.38,1.7A14.6,14.6,0,0,0,158.36,114.46Z"/><path d="M97.87,98.82l-2.2-2.22c-.72-4,.78-25.64,1.41-30.16.67-4.82.52-9.76.63-14.64.08-3.62.67-7.39-.16-10.81-1.21-4.94,3-7,4.64-10.32,1.43-3,9.25-1,11.33,3a40.24,40.24,0,0,1,3.93,10.68c1.1,5.64,1.5,11.44,2.14,17.17.48,4.28,1.69,5.59,6.22,5.52a75.93,75.93,0,0,0,9.6-1c1.8-.26,8.92,1,9.5,2.3a8.5,8.5,0,0,1,.89,5c-.36,1.62-.72,3.88-3.6,3.76-4.91-.19-9.85-.15-14.78,0-4.2.11-5.37,1.22-5.85,4.88-.66,5.08-1.29,10.16-2,15.23-1,6.83-5,9.32-11.42,6.76C104.61,102.48,101.28,100.53,97.87,98.82Z"/><path d="M220.68,74.85a4.58,4.58,0,0,1,1,0c2.09.46,5.76.56,6,1.48.93,3.88-3.16,1.74-4.54,3-1.11,1-2.59,2.56-2.49,3.75s1.7,2.68,3,3.46,3.32.47,4.44,1.36a6.73,6.73,0,0,1,2,4.06c.3,2-1.34,2.3-3,2.9-4.53,1.61-6.18,5.19-4.69,9.76.27.83,1.82,1.64,2.84,1.74,2.6.24,5.28-.19,7.85.16a6,6,0,0,1,3.91,2.28c.37.57-.81,2.89-1.84,3.52a70.89,70.89,0,0,1-8.52,4.07c-1.37.6-2.82,1-4.24,1.52,1.44,3.1-4.07,5.4-.79,9,1.86,2,2.74,5,3.84,7.68,1.49,3.58-1.32,10.05-4.78,11.35-2.62,1-5.27-.5-6.9-3.19a8.87,8.87,0,0,1-.74-8.26,39.73,39.73,0,0,0,1.26-4.58c.64-2.76,1.22-5.55,1.83-8.32a76.56,76.56,0,0,0-8.35-1.17c-3.69-.14-4.59-2.72-6-5.39-1.55-3,.56-5.16,1.88-6.54a13.28,13.28,0,0,1,7.48-3.77c3.61-.42,3.08-2.48,3.18-4.74.12-2.59-1.14-3.5-3.55-3.26a2.69,2.69,0,0,1-1,0c-1.76-.48-4.45-.48-5.09-1.62-1.57-2.82.72-5,2.89-6.46,1.49-1,3.62-1.13,5.15-2.12a3.88,3.88,0,0,0,1.34-3.15A4,4,0,0,0,211.9,81c-2.28-1.19-7,2.09-7-2.33,0-3.55,5.07-.69,7.27-2.62A4.79,4.79,0,0,1,214.78,75c1.95-.16,3.93-.05,5.9-.05Z"/><path d="M224.14,71.31a39.14,39.14,0,0,1-3.47-2.65C214.6,63,216,56.07,223.91,53.33c1.06-.36,3.07-.18,3.58.52,1.54,2.14,4.12,5.35,3.45,6.87-1.38,3.08,1.28,8.54-4.64,9.3C225.72,70.1,225.21,70.65,224.14,71.31Z"/><path d="M303.2,24c-10.37,2.4-10.37,2.4-10-7.94a12.85,12.85,0,0,1,.21-2.92c.13-.48.92-1.18,1.3-1.11.83.14,2.23.65,2.27,1.1.23,2.56.11,5.13.11,8.1,3.64-1.08,6.7-1.7,6.19-6.07,0-.34,1.45-1.27,2.12-1.17A2.52,2.52,0,0,1,307,15.85q.13,10.77-.07,21.54a2.42,2.42,0,0,1-1.67,1.71c-.65,0-1.94-.86-2-1.38C303.13,33.21,303.2,28.7,303.2,24Z"/><path d="M170.57,38.3A45.65,45.65,0,0,0,172,33.09a12.21,12.21,0,0,0-.36-3.31c-1.11.48-2.52.69-3.25,1.5-1.68,1.87-3,4.07-4.57,6-.22.27-1.26.07-1.78-.18a1.42,1.42,0,0,1-.18-1.36c3-4.48,6.05-9,9.25-13.31.4-.55,1.7-.43,2.59-.63-.32,1-.57,2-1,2.92a23,23,0,0,1-1.2,2.24c.88,0,2,.37,2.59,0,1.35-.86,2.4-2.19,3.69-3.15a1.89,1.89,0,0,1,1.81,0c.53.68,1.23,2,.94,2.45-1.21,2-2.9,3.57-.33,5.82,1.32,1.15,3.42,2.32,1.88,4.74l-3.72-2.48c-1.68-1.12-2.76-1-3.61,1.14-.56,1.42-1.81,2.55-2.75,3.81Z"/><path d="M212.28,65.48a16.44,16.44,0,0,1-.05,3.91c-.84,3.39-5.11,5-7.67,2.64a13.34,13.34,0,0,1-4-6.22c-1.07-4.64,1.21-8.71,4-8.52C208.51,57.56,212.3,61.51,212.28,65.48Z"/><path d="M192.31,28c-1.26-.14-2.35,0-3.08-.4-1.62-1-3.08,3.41-4.32.1-.17-.45,1.85-2,3.09-2.64,2-.95,4.25-1.29,6.18-2.3,1.54-.8,3-1.82,4,.08a4.54,4.54,0,0,1-.14,3.69c-.7,1.42-2.31,2.38-3,3.79-1,1.9-2.62,4.71-1.91,5.94,1.27,2.22,3.85,1.07,6-.16a7.51,7.51,0,0,1,3.7-.53,2,2,0,0,1,1.39,1.1,2.91,2.91,0,0,1-.16,1.77c-4.15.24-7.42,5-12.52,1.55-2.83-1.9-3.61-3.17-2.29-5.95C190.16,32.11,191.18,30.22,192.31,28Z"/><path d="M135.19,11.38c-2.85,2.58-8.1,2.38-4.29,7.47,1.06,1.4.16,4.27.16,7-6-4.39-3.12-10-3.44-14.85-.07-1.12,9.65-3.65,10.58-2.83a2.75,2.75,0,0,1,.94,1.57c.15,1.63-.19,3.34.19,4.89s-2.28,6.47,3.16,3.38a5,5,0,0,1,.61,1.72,2.25,2.25,0,0,1-.75,1.67c-1.75,1-2.19,4.74-5,3.05-1.26-.77-1.82-3.18-2.1-4.94C134.93,17.31,135.19,15,135.19,11.38Z"/><path d="M144.58,140.18c-2.7.3-7-3.57-7.3-6.54-.25-2.64,2.51-7,4.67-7.35,4-.68,8.76,2.74,9.16,6.54C151.38,135.48,147.5,139.85,144.58,140.18Z"/><path d="M267.61,27.59c.45-1.1.91-2.2,1.37-3.3-.88-.05-1.89-.41-2.62-.1-1.76.73-3.35,1.84-5.07,2.67-3.82,1.85-3.45-1-3.55-3.26l0,0c3.78-1.61,7.57-3.17,11.31-4.88.34-.15.42-1.19.33-1.77,0-.26-.94-.67-1.24-.54-2.34,1-4.57,2.3-6.94,3.21-.74.28-1.82-.3-2.74-.49.34-.73.49-1.73,1.06-2.15,1.28-.93,2.85-1.45,4.16-2.34,2.18-1.48,5.22-4.92,6.2-4.39,3.84,2.07,1.13,6.33,1.73,9.64a18.73,18.73,0,0,1-.11,5.88c-.34,2.38-2.39,1.58-3.89,1.74Z"/><path d="M290.54,35.44c-1.74-1.64-3.23-3.17-4.83-4.56-2.76-2.37-1.79,1-2.62,1.66a7,7,0,0,1-2.52.79,15.28,15.28,0,0,1,.17-2.25c.89-4.21,1.83-8.42,2.9-13.3-2.7,1.6-4.48,2.73-6.35,3.68-.32.16-1.27-.38-1.52-.83s-.3-1.66,0-1.81c3-1.73,6.05-3.41,9.2-4.86.48-.22,1.54.71,2.27,1.21.17.11.14.62.09.94-.4,3-1.68,6.22-1,9s3.27,5.32,4.9,8C291.4,33.48,290.89,34.27,290.54,35.44Z"/><path d="M156.89,132.89c.08-3.75,1.84-6.56,4.12-6.53s7.43,5,7.31,7.26c-.19,3.62-2.44,6.56-5.06,6.58C158.47,140.25,156.78,138.31,156.89,132.89Z"/><path d="M217.57,32.61c2.68-5.21,4.36-8.31,5.86-11.49a7.6,7.6,0,0,0,.22-2.64c-.78.29-1.59.91-2.31.81a11.64,11.64,0,0,1-2.94-1.23,10.35,10.35,0,0,1,2.33-2.26,4.16,4.16,0,0,1,2.89-.07c1.8.61,2.7-2.94,5-.62s-.16,4.07-.78,4.86c-1.9,2.41-.47,4.18.41,6a67.9,67.9,0,0,0,4.54,6.88c-3.22.2-4.32-1.57-5.29-2.83-2-2.66-3.37-1.74-5.09.27C221.77,31,220.44,31.26,217.57,32.61Z"/><path d="M145.17,12a12.32,12.32,0,0,1,.74-3.67c.64-1.4,2.36-3.72,2.82-3.55,2.34.88,1.39,2.41.72,4.44-1.17,3.5.13,4.21,4.36,3a6.81,6.81,0,0,1,2.78-.42c.8.13,1.94.74,2.11,1.36a2.78,2.78,0,0,1-1,2.33,32.46,32.46,0,0,1-4.24,2.16C147.51,20.69,145.21,19.39,145.17,12Z"/><path d="M195.48,138.24c-1.75,0-4.94-4.19-4.79-6.29.21-3,3-6,5.32-5.74,3,.37,4.68,2.67,4.56,6.28S198.55,138.26,195.48,138.24Z"/><path d="M178.63,132.55c-.08-2.51.25-4.53,3.59-4.39,2.67.11,7,3.51,6.13,5.72a13.49,13.49,0,0,1-5.54,6.05C180.79,141.09,178.57,137.19,178.63,132.55Z"/><path d="M187.56,19.48c-.73-1.18-2.29-2.8-2.73-4.68-.29-1.25,1.07-2.85,1.62-4.32s-.73-4.91,2.19-4.32c4.42.9.53,3.13.29,4.89a3.15,3.15,0,0,0,1.81,2.53c2.2.41,4.5.21,6.75.41.33,0,.79,1,.82,1.5S198,17,197.68,17.1C194.67,17.91,191.62,18.55,187.56,19.48Z"/><path d="M137,39.78c3.9-5.78,7.09-10.6,10.43-15.31.4-.55,1.7-.45,2.58-.66a5.82,5.82,0,0,1-.29,2.18c-3.21,5.3-3.19,5.24,1.81,9.64.72.62.77,2,1.13,3-1.12,0-2.82.37-3.28-.21-3.09-3.89-5.72-3.35-8.51.29C140.42,39.29,139.18,39.22,137,39.78Z"/><path d="M237,33.74c-3.19-6.64-.47-12.53-.84-18.34,0-.46,1.32-1.44,2-1.39s1.49,1,1.71,1.76a6,6,0,0,1-.16,2.85c-1,4.27-1,4.2,3.18,3.39a7.26,7.26,0,0,1,2.6.48c-.38,1-.45,2.49-1.18,3C238.93,28.94,238.41,29.38,237,33.74Z"/><path d="M257.74,23.6c-.84,1.16-1.6,2.39-2.54,3.46-1.2,1.38-2.28,3.29-4.64,2.08s-3.57-4.5-2.36-6.49a19.15,19.15,0,0,1,3.16-3.59c2.24-2.18,3.78-2,4.55,1.33a13.08,13.08,0,0,0,1.79,3.26Z"/><path d="M165.76,9.76c4.75,4.91,5.05,6,2.36,9.48-1.11,1.44-2.36,3.33-4.69,1.87A5,5,0,0,1,161,15.35a4,4,0,0,1,1-1.6C163.06,12.55,164.2,11.4,165.76,9.76Z"/><path d="M267.57,27.56c-.77,2.27-1.54,4.55-2.69,7.93,3.81-1.68,6.27-2.83,8.8-3.81.37-.15,1.28.4,1.54.85s.33,1.6,0,1.84c-3.48,2.69-7.41,3.94-11.79,3a3,3,0,0,1-1.7-1.93c-1.09-4.27.3-6.05,5.85-7.8Z"/><path d="M180.92,14.38a43.3,43.3,0,0,1-.76,4.48c-.09.33-1.07.63-1.6.59s-1.44-.5-1.49-.87a16.26,16.26,0,0,1-.25-4.81c.31-2-1.53-5.53,1.69-5.6C182.7,8.08,180,12.12,180.92,14.38Z"/></svg>