<svg id="Layer_1" data-name="Layer 1" xmlns="http://www.w3.org/2000/svg" viewBox="0 0 475 163"><title>Artboard 4</title><path d="M476,88l-4.46,4c-.25.21-.81.44-.79.52.75,2.47-1,3.77-2.6,4.73a27.85,27.85,0,0,1-7.23,3.23c-8.68,2.14-17.38,4.31-26.36,4.73-7.8.36-15.61,1-23.39.77-10.29-.3-20.51-1.69-30.05-6a33.76,33.76,0,0,1-6.8-4c-3.63-2.84-2.7-6.42-1.15-10,.63-1.43,2.09-1.87,3.81-1.54,3.58.67,7.19,1.15,10.79,1.69A195.24,195.24,0,0,0,428,87.66c14.22-.79,28.27-3.23,42.22-6.22,1.79-.39,3.82.35,5.74.56Z"/><path d="M392.69,47.26c.13,2.54-1.24,3.61-2.94,4.49-4.62,2.36-9.36,4.2-14.65,4.48-4.44.23-8.86.79-13.67,1.24-.09,1.36-.26,2.81-.27,4.25-.07,8.67,0,17.33-.2,26-.11,3.73-.32,7.48-2.57,10.89-2.42,3.67-5.37,5.79-9.83,5.58a5.62,5.62,0,0,0-2.56.37,6.25,6.25,0,0,0,1.26.25c8.06,0,13.55,7.09,13.83,14.27.3,7.68-.18,15.22-3.62,22.36-1.48,3.07-1.4,6.87-4.32,9.27-.61.5-1.25,1.24-1.93,1.31-4,.42-7.9.88-11.86.94-10,.18-20,0-30,.29-4,.12-7.82.36-11.74-.66s-5.34-1.82-5.73-5.56a17.38,17.38,0,0,0-1.94-5.51,31.65,31.65,0,0,1-2.05-8.08,29.87,29.87,0,0,1-.38-7.94,13.2,13.2,0,0,0-.74-6.32c-1.11-3,0-5.91.54-8.74.24-1.26,2.05-2.56,3.45-3.18a18.19,18.19,0,0,1,5.79-1.28c14.22-1.23,28.45-2.54,42.75-2.09a5.7,5.7,0,0,0,1.12-.23c-4.16-3.77-4.11-8.68-3.35-13.48,1.28-8,.51-15.94.74-23.9.09-3.31.11-6.62,0-9.93s-.58-6.6-.71-9.9,0-6.6-.12-9.89c-.13-2.64-.75-5.26-.84-7.9a49,49,0,0,1,.44-7.35c.05-.47.83-1,1.38-1.25,7.32-3.26,18.6,2.56,20.19,10.37a20.29,20.29,0,0,0,.92,3.84c1.9,4.52,2.15,9.29,2.18,14.57C371.93,47.71,382.21,43.7,392.69,47.26ZM343.38,139.1c.88-4.53,1.69-8.24,2.3-12,.56-3.39-.79-5-4.18-5.11a308.79,308.79,0,0,0-36.37,1.26c-.28,0-.53.36-1.26.89.28,2.32.45,4.94.92,7.52,1.53,8.36,4.51,7.29,10.47,6.78a178.44,178.44,0,0,1,17.92-.24C336.47,138.27,339.75,138.77,343.38,139.1Z"/><path d="M200.28,135.28a18.07,18.07,0,0,0-.19,2.06c.21,4.49.38,4.79,5,4.64,8.3-.25,16.58-.72,24.87-1.09a27,27,0,0,0,3.49-.08c3.11-.56,4.92.93,6.33,3.49,2,3.63.93,6.93-3,8.24A46.83,46.83,0,0,1,230,154c-7.5,1.29-15,2.67-22.51,3.73-4.91.7-9.89,1-14.84,1.33-4.44.32-7.81-1.92-7.7-7.49.1-4.64-.17-9.28-.06-13.92.06-2.59-.53-4.57-3-5.71a9.72,9.72,0,0,1-2.08-1.37c-1.3-1.08-4.23-1.06-3.6-3.41a7.57,7.57,0,0,1,4.66-5.42c3.6-1.34,7.21-.89,10.84-.6,7.26.57,14.51,1.33,21.78,1.85a66.74,66.74,0,0,0,9.38,0c3.09-.21,3.63-.9,4-3.86a19,19,0,0,0,.1-2c.1-4.45,0-4.63-4.58-5.12-4.28-.46-8.59-.67-12.88-1-2.63-.22-5.28-.85-7.89-.71a118.05,118.05,0,0,0-14.29,1.58c-4.58.82-8.92-.17-13.32-.91-1.69-.29-2.23-1.93-1.29-3.47,3-5,7.22-8.4,13.24-8.49,10.66-.16,21.32-.24,32,.07a157,157,0,0,1,17.26,1.88,9.94,9.94,0,0,1,8.2,8.66,60.49,60.49,0,0,1-.21,16.79c-.37,2.79-1.44,4.81-4.42,5.86A66.61,66.61,0,0,1,205,135.31,32.38,32.38,0,0,0,200.28,135.28Z"/><path d="M119.34,62.31l12.48-2.18c.67-6.34,1.46-12.74,2-19.16a53.87,53.87,0,0,0-.34-7.91c-.12-1.82-.48-3.62-.51-5.44-.07-3.21,1-4.9,3.21-5.48,2.41-.63,5.94.54,6.85,2.86a35.71,35.71,0,0,1,1.9,8.14A42.8,42.8,0,0,1,145,40c-.29,8.8-.35,17.62-1,26.39-.42,5.26-1.78,10.45-2.9,15.64-1.23,5.66-2.72,11.28-4,16.94-1.5,6.63-7.78,9.43-13.24,5l-1.18-1a16.79,16.79,0,0,1,1.81-8.1c3.57-7,4.26-14.81,6.12-22.86-4.29.42-8.22.71-12.12,1.27-.57.08-1.22,1.4-1.39,2.23-1,5.19-1.94,10.41-2.91,15.62a27.73,27.73,0,0,1-1,4.35,8.08,8.08,0,0,1-11.32,4.37,2.42,2.42,0,0,1-1.1-1.56c-.24-1.94-.79-4-.29-5.83,2.41-8.66,3.28-17.55,4.63-26.38a148.26,148.26,0,0,0,1.71-29.29A87.16,87.16,0,0,0,105.31,25c-.26-1.43-.47-2.54.6-3.63,3.17-3.23,10-1.74,11,2.62a103.61,103.61,0,0,1,2.15,12.74c.51,4.61.81,9.26.88,13.89,0,2.63-.59,5.26-.84,7.9A34.1,34.1,0,0,0,119.34,62.31Z"/><path d="M82.73,125c-3.74,3.92-7.19,7.71-10.83,11.3-4.46,4.4-8.39,9.44-14,12.56a37.65,37.65,0,0,1-6.43,2.36c-1.4.47-2.84.82-4.26,1.23a5.49,5.49,0,0,1-5.82-1.71c-1.61-1.71-1.53-2.85,0-4.73,4.31-5.12,9.07-9.58,15.28-12.48,2.62-1.23,4.81-3.51,7-5.53a55.1,55.1,0,0,0,10.77-13c1.87-3.28,4.54-6,6-9.66.92-2.35,6.14-3.59,8.82-2.67,3.09,1,4.71,3.68,4.2,7.35a2.26,2.26,0,0,0,1.32,2.79C105,118,114.25,124.92,125,129.14c5.69,2.23,11.2,5,16.68,7.69,4.48,2.23,7.9,8.33,7.25,12.48-.31,2-1.35,3.81-1,6.07.25,1.74-1.68,2.5-3.19,2.3-3.92-.53-7.83-1.05-11.48-2.92-13.45-6.88-27.18-13.25-39.85-21.55C89.82,130.86,86.59,128,82.73,125Z"/><path d="M281.54,75c2.41-.41,4.5-.73,6.58-1.13a214.84,214.84,0,0,1,30.52-4c3.3-.16,6.59-.69,9.9-.78,3.62-.11,4.77,1.31,3.51,4.47A54.63,54.63,0,0,0,329.78,81c-.39,1.59-2.38,3.34-4,4a75.06,75.06,0,0,1-24.67,5.33c-7.12.19-14.23,1-21.35,1.34a20.07,20.07,0,0,1-5.39-.54c-2.75-.61-4.07-3.39-3.83-6.38.3-3.8.81-7.76.1-11.43-1.33-6.91-.23-13.55.93-20.24.35-2,.39-3.42-1.58-4.66a13.8,13.8,0,0,1-3.47-3.55c-1.83-2.44-2.28-7-.12-8.78,1.67-1.37,4.58-1.78,6.89-1.68,3.61.17,7.16,1.27,10.77,1.75a102.68,102.68,0,0,0,20.15,1.2c3.7-.24,8-.27,10.72,3.75,1,1.52,1.17,2.54-.14,3.88-1.71,1.76-3.19,3.74-4.93,5.48A5.52,5.52,0,0,1,307,52.05c-7.07.89-14.08,1.45-21.27.33-6.95-1.09-6.35-.29-6.6,5.69C278.85,63.63,280.05,68.94,281.54,75Z"/><path d="M44.82,49.69c-1.55-2.61-2.6-4.69-3.93-6.59-4-5.66-6-12.2-8.1-18.6a25.35,25.35,0,0,1-.72-9.8c.26-3.37,2.88-5.53,5.7-7a6.55,6.55,0,0,1,7.75,1.51A19.25,19.25,0,0,1,51,21.66a60,60,0,0,0,3.86,17.89c1.09,2.93,1.84,6,2.82,9.26,2,0,4,.16,5.93,0,5.26-.52,10.5-1.16,15.75-1.82a8.13,8.13,0,0,1,6.42,2.14c1.6,1.34.65,5.71-1.58,6.83a29.55,29.55,0,0,1-6.08,2.17,161.09,161.09,0,0,1-24.94,4.17c-11.4,1-22.8,1.85-34.26,1.95-4.45,0-7.6-1.79-10.35-4.95A6.25,6.25,0,0,1,7.3,52.33c1-2.33,3.29-2.42,5.55-2.41,9.65,0,19.31,0,29-.08C42.63,49.84,43.44,49.76,44.82,49.69Z"/><path d="M414.28,131.47c5.83,0,11.31.43,16.69-.1,7.57-.75,15-2.49,22.59-3.24,4-.4,8,.61,10.51,4.4,1.45,2.17,1.26,4.05-.73,5.7a16.31,16.31,0,0,1-2.12,1.31c-2.28,1.3-4.38,2.63-5.26,5.42-.68,2.14-2.82,2.63-4.81,3-12.13,2.58-24.42,2.31-36.71,2.1-4.93-.08-9.86-.35-14.79-.58-2.79-.13-4.95-3.16-4.61-6.6.2-2,.68-3.92,1-5.87,1-4.87,1.85-9.75,2.88-14.6a12.71,12.71,0,0,1,6.27-8.54,5.93,5.93,0,0,1,8.79,5.15C414.19,123.18,414.2,127.31,414.28,131.47Z"/><path d="M241.09,57c5.8-.68,10.88-1.18,15.92-1.9,4.08-.58,6,1.62,4.7,5.53-1.21,3.57-3.59,5.27-7.36,5.49-4.25.25-8.5.63-12.95,1-.13,1.84-.2,3.14-.31,4.42-.38,4.12-.71,8.23-1.17,12.34-.38,3.39-2.12,6.2-4.22,8.78a5.75,5.75,0,0,1-1.91,1.48c-1.76.83-3.6,1.5-5.38,2.29-2.2,1-3.4.86-4.68-1.12a9.75,9.75,0,0,1-1.68-4.57c-.22-5.78-.47-11.54.48-17.36.74-4.55.36-9.28.39-13.93.05-8.15,0-16.3.07-24.44,0-4.88,1.57-6.46,6.28-6,6.27.63,11,4.36,10.92,11.14-.06,3.16-.14,6.32,0,9.47C240.28,51.82,240.72,54.08,241.09,57Z"/><path d="M56.36,112.93c-3.08.79-5-.47-6.68-2.61C45.46,105,42.62,99,42.31,92.25c-.36-7.82,0-15.57,3.52-23,2.62-5.6,10-8.14,14.81-4.08a6.43,6.43,0,0,0,5,1.68c4.31-.35,8.11,1.46,12,2.87a6.61,6.61,0,0,1,3.9,6.65c-.81,7.28-2.37,14.3-7.2,20.19-3,3.71-5.71,7.72-8.82,11.37C63,110.72,60.9,114.42,56.36,112.93Zm1.88-17.29A32.32,32.32,0,0,0,67,83.72c1.43-3.21.27-5.18-3.12-5.36-1.75-.09-3.5,0-5.22,0C56.44,83.85,58.29,89.17,58.24,95.64Z"/><path d="M410.84,59.42c.55-5.93.58-10.62,1.5-15.13,1.62-8,8.29-12.45,16.05-11.23a2.75,2.75,0,0,1,1,.21c7.3,4.39,15.56,7.31,21.3,14.12,2.58,3.06,2.82,3.82,1.11,7.5-1.26,2.7-2.19,5.57-3.59,8.19-1.15,2.15-2.9,4-4.19,6-3.18,5.15-8.37,7.25-13.62,9.35a6.44,6.44,0,0,1-5.77-.15,99,99,0,0,1-8.56-5,7.3,7.3,0,0,1-2.59-3.59C412.29,65.92,411.48,62,410.84,59.42Zm25-4.89a11.73,11.73,0,0,0-2.22-3c-1.1-.87-5.23.91-5.88,2.52a15.2,15.2,0,0,0-1.06,9c.33,1.56,1.43,2.1,3,1.47C432.11,63.53,435.76,58.22,435.83,54.53Z"/><path d="M167.1,75.68c-3.52,3.51-7.16,7.18-10.84,10.79-2.76,2.71-3.74,3-5.5,1.82-2-1.37-2.23-2.9-.38-6.11A23.84,23.84,0,0,1,153.83,78c2.49-2.66,5.21-5.12,7.54-7.9,4.27-5.09,8.25-10.44,12.52-15.53A26.23,26.23,0,0,0,178.83,46c.46-1.36,1-2.69,1.57-4.11,4.68,2.91,6,7.3,3.36,11.55C181.6,57,179,60.27,176.34,64.09c4.91,2.23,9.76,4.71,14.82,6.66s10.09,3.22,15.12,4.86a12.17,12.17,0,0,1,3.55,1.67c2.61,1.92,3,4.1,1.6,7a26.29,26.29,0,0,0-2.08,4.48,2.85,2.85,0,0,1-3.2,2.43,13.83,13.83,0,0,1-3.48-.14c-8.52-2.69-17.13-5.17-25.45-8.4C173.65,81.23,170.72,78.23,167.1,75.68Z"/></svg>