<svg id="Layer_1" data-name="Layer 1" xmlns="http://www.w3.org/2000/svg" viewBox="0 0 183.6 88.2"><title>Artboard 5</title><path d="M86.34,49c20.79-14.23,20.79-14.23,21.84-21.31-5.34,0-10.59.15-15.81-.11-1.28-.07-3.57-1.59-3.51-2.27a9.32,9.32,0,0,1,2.29-5c.69-.78,2.43-.7,3.72-.9,4.82-.76,9.66-1.48,15-2.3.27-4.88.53-9.43.78-14,8.22-2,10.31-.82,11.48,6.61,1,6.49,1.09,6.23,8.25,8.29,3.2.92,7.4.65,8.79,5.22.9,3,0,5.56-3,5.87-3.85.4-7.75.34-12.55.51,5.88,7.17,13.79,9.51,20.09,14-4.34,8-4.75,8.15-11.64,5-4.79-2.19-9.76-6.2-14.4-5.87s-8.87,5.09-13.28,7.91c-1.39.89-2.71,1.9-4.16,2.7C93.71,57,92.28,56.58,86.34,49Z"/><path d="M88,73.4c0,3,.6,5-.15,6.14a8.81,8.81,0,0,1-4.67,3.25c-2.16.62-4.58.43-6.89.44-9.62,0-19.26.28-28.87,0s-19.1-1.16-28.65-1.71c-5.43-.31-8.68-3.83-10-8.32C7.25,67.92,7.08,62.26,6.3,56.58c3.94-2.1,7.64-1.33,11.14-1.22,5.91.17,7.89,2.31,8.68,8.47,1.06,8.36,1.91,9.33,10.41,9.43,14.93.18,29.87.11,44.8.14Z"/><path d="M38.12,66.59c0-3.12.08-6.36,0-9.61-.21-7.13-2.22-9.12-9.6-9.66S14,46.25,6.76,45.77c-2.14-.15-4.39-.57-3.95-3.17a7.5,7.5,0,0,1,3.06-4.51c1.2-.77,3.22-.33,4.87-.33,12.66,0,25.31-.13,38,0,10.06.06,20.1,1.1,30.18.63,2.33-.1,3.85,1.43,3.48,3.68-.2,1.3-1.52,3.27-2.57,3.43-3.26.49-6.63.14-9.94.34-5.55.33-11.09.83-17.19,1.31-.17,3.35-.39,5.9-.42,8.45C52.14,67.45,50.87,68.54,38.12,66.59Z"/><path d="M5.44,28.49c5.57-3.61,10.38-7,15.49-9.94A177.25,177.25,0,0,1,40.22,8.76c2.79-1.16,6.94-1.55,9.5-.3,12.37,6,24.41,12.73,36.8,19.31-5.67,6.11-5.62,6-11.14,3.53C67.27,27.69,59,24.41,51,20.72c-3.74-1.71-6.71-1.3-10.14,1-6,4-12.46,7.38-18.66,11.13C14.86,37.21,12.8,36.85,5.44,28.49Z"/><path d="M139.05,87.39c-5-.51-11.3-2.66-15.47-8.27-6-8.06-.45-21.5,9.61-23.41a23.3,23.3,0,0,1,16.31,2.63c5.75,3.33,9.12,9.78,7.9,14.64C155.11,82.08,149.28,87.15,139.05,87.39Zm1.09-9.92c3.78.21,6.1-2,6.31-5.89s-1.74-6.12-5.74-6.32c-3.33-.17-7.81,3-8.15,5.76C132.25,73.61,136.54,77.27,140.14,77.47Z"/><path d="M182.09,27.62c-.07,9.36-.35,9.69-7.05,9.76-12.06.13-12.15.13-12.73,12.78-.13,2.91-.64,4.94-3.64,6.17-5.4,2.21-8.34.4-8-5.52.72-14,1.57-28,2.42-42.83A53.36,53.36,0,0,1,159,7.32c3.23-.06,4.73,1.9,5,5,.24,3.29.06,6.68.8,9.85s2.53,6,6.87,5.55C174.87,27.35,178.16,27.62,182.09,27.62Z"/></svg>